<svg width="20" height="20" viewBox="0 0 20 20" fill="none" xmlns="http://www.w3.org/2000/svg">
<path d="M16.3583 3.04166C16.2614 2.96334 16.1483 2.90772 16.0272 2.87888C15.906 2.85004 15.78 2.84871 15.6583 2.87499C14.7678 3.06161 13.8485 3.06399 12.9571 2.88198C12.0657 2.69997 11.221 2.33742 10.4749 1.81666C10.3354 1.71989 10.1697 1.66803 9.99992 1.66803C9.83015 1.66803 9.66442 1.71989 9.52492 1.81666C8.77889 2.33742 7.93415 2.69997 7.04273 2.88198C6.1513 3.06399 5.23206 3.06161 4.34159 2.87499C4.21987 2.84871 4.09381 2.85004 3.97267 2.87888C3.85154 2.90772 3.7384 2.96334 3.64159 3.04166C3.54491 3.12009 3.46702 3.21919 3.41367 3.33167C3.36031 3.44415 3.33283 3.56716 3.33326 3.69166V9.89999C3.33252 11.0948 3.61723 12.2725 4.1637 13.335C4.71017 14.3975 5.50257 15.314 6.47492 16.0083L9.51659 18.175C9.65772 18.2755 9.82667 18.3295 9.99992 18.3295C10.1732 18.3295 10.3421 18.2755 10.4833 18.175L13.5249 16.0083C14.4973 15.314 15.2897 14.3975 15.8361 13.335C16.3826 12.2725 16.6673 11.0948 16.6666 9.89999V3.69166C16.667 3.56716 16.6395 3.44415 16.5862 3.33167C16.5328 3.21919 16.4549 3.12009 16.3583 3.04166ZM14.9999 9.89999C15.0006 10.829 14.7793 11.7446 14.3546 12.5708C13.9299 13.397 13.3141 14.1099 12.5583 14.65L9.99992 16.475L7.44159 14.65C6.68579 14.1099 6.06991 13.397 5.64521 12.5708C5.22052 11.7446 4.99928 10.829 4.99992 9.89999V4.64999C6.74695 4.79952 8.49662 4.39418 9.99992 3.49166C11.5032 4.39418 13.2529 4.79952 14.9999 4.64999V9.89999ZM11.2833 7.99166L9.04159 10.2417L8.29992 9.49166C8.143 9.33474 7.93017 9.24658 7.70826 9.24658C7.48634 9.24658 7.27351 9.33474 7.11659 9.49166C6.95967 9.64858 6.87151 9.86141 6.87151 10.0833C6.87151 10.3052 6.95967 10.5181 7.11659 10.675L8.44992 12.0083C8.52739 12.0864 8.61956 12.1484 8.72111 12.1907C8.82266 12.233 8.93158 12.2548 9.04159 12.2548C9.1516 12.2548 9.26052 12.233 9.36207 12.1907C9.46362 12.1484 9.55579 12.0864 9.63326 12.0083L12.4999 9.16666C12.6568 9.00974 12.745 8.79691 12.745 8.57499C12.745 8.35307 12.6568 8.14025 12.4999 7.98333C12.343 7.82641 12.1302 7.73825 11.9083 7.73825C11.6863 7.73825 11.4735 7.82641 11.3166 7.98333L11.2833 7.99166Z" fill="#5B5575"/>
</svg>
