<svg width="188" height="36" viewBox="0 0 188 36" fill="none" xmlns="http://www.w3.org/2000/svg">
<path d="M16.7636 3.80517C17.1528 2.60746 18.8472 2.60746 19.2364 3.80517L21.7494 11.5394C21.9234 12.075 22.4226 12.4377 22.9858 12.4377H31.118C32.3774 12.4377 32.901 14.0492 31.8822 14.7894L25.303 19.5694C24.8474 19.9005 24.6567 20.4873 24.8308 21.0229L27.3438 28.7571C27.7329 29.9548 26.3621 30.9508 25.3433 30.2106L18.7641 25.4306C18.3085 25.0995 17.6915 25.0995 17.2359 25.4306L10.6567 30.2106C9.63791 30.9508 8.26708 29.9548 8.65624 28.7571L11.1692 21.0229C11.3433 20.4873 11.1526 19.9005 10.697 19.5694L4.11785 14.7894C3.09902 14.0492 3.62263 12.4377 4.88197 12.4377H13.0142C13.5774 12.4377 14.0766 12.075 14.2506 11.5394L16.7636 3.80517Z" fill="#F3A939"/>
<path d="M54.7636 3.80517C55.1528 2.60746 56.8472 2.60746 57.2364 3.80517L59.7494 11.5394C59.9234 12.075 60.4226 12.4377 60.9858 12.4377H69.118C70.3774 12.4377 70.901 14.0492 69.8822 14.7894L63.303 19.5694C62.8474 19.9005 62.6567 20.4873 62.8308 21.0229L65.3438 28.7571C65.7329 29.9548 64.3621 30.9508 63.3433 30.2106L56.7641 25.4306C56.3085 25.0995 55.6915 25.0995 55.2359 25.4306L48.6567 30.2106C47.6379 30.9508 46.2671 29.9548 46.6562 28.7571L49.1692 21.0229C49.3433 20.4873 49.1526 19.9005 48.697 19.5694L42.1179 14.7894C41.099 14.0492 41.6226 12.4377 42.882 12.4377H51.0142C51.5774 12.4377 52.0766 12.075 52.2506 11.5394L54.7636 3.80517Z" fill="#F3A939"/>
<path d="M92.7636 3.80517C93.1528 2.60746 94.8472 2.60746 95.2364 3.80517L97.7494 11.5394C97.9234 12.075 98.4226 12.4377 98.9858 12.4377H107.118C108.377 12.4377 108.901 14.0492 107.882 14.7894L101.303 19.5694C100.847 19.9005 100.657 20.4873 100.831 21.0229L103.344 28.7571C103.733 29.9548 102.362 30.9508 101.343 30.2106L94.7641 25.4306C94.3085 25.0995 93.6915 25.0995 93.2359 25.4306L86.6567 30.2106C85.6379 30.9508 84.2671 29.9548 84.6562 28.7571L87.1692 21.0229C87.3433 20.4873 87.1526 19.9005 86.697 19.5694L80.1179 14.7894C79.099 14.0492 79.6226 12.4377 80.882 12.4377H89.0142C89.5774 12.4377 90.0766 12.075 90.2506 11.5394L92.7636 3.80517Z" fill="#F3A939"/>
<path d="M130.764 3.80517C131.153 2.60746 132.847 2.60746 133.236 3.80517L135.749 11.5394C135.923 12.075 136.423 12.4377 136.986 12.4377H145.118C146.377 12.4377 146.901 14.0492 145.882 14.7894L139.303 19.5694C138.847 19.9005 138.657 20.4873 138.831 21.0229L141.344 28.7571C141.733 29.9548 140.362 30.9508 139.343 30.2106L132.764 25.4306C132.308 25.0995 131.692 25.0995 131.236 25.4306L124.657 30.2106C123.638 30.9508 122.267 29.9548 122.656 28.7571L125.169 21.0229C125.343 20.4873 125.153 19.9005 124.697 19.5694L118.118 14.7894C117.099 14.0492 117.623 12.4377 118.882 12.4377H127.014C127.577 12.4377 128.077 12.075 128.251 11.5394L130.764 3.80517Z" fill="#F3A939"/>
<path d="M168.764 3.80517C169.153 2.60746 170.847 2.60746 171.236 3.80517L173.749 11.5394C173.923 12.075 174.423 12.4377 174.986 12.4377H183.118C184.377 12.4377 184.901 14.0492 183.882 14.7894L177.303 19.5694C176.847 19.9005 176.657 20.4873 176.831 21.0229L179.344 28.7571C179.733 29.9548 178.362 30.9508 177.343 30.2106L170.764 25.4306C170.308 25.0995 169.692 25.0995 169.236 25.4306L162.657 30.2106C161.638 30.9508 160.267 29.9548 160.656 28.7571L163.169 21.0229C163.343 20.4873 163.153 19.9005 162.697 19.5694L156.118 14.7894C155.099 14.0492 155.623 12.4377 156.882 12.4377H165.014C165.577 12.4377 166.077 12.075 166.251 11.5394L168.764 3.80517Z" fill="#F3A939"/>
</svg>
